<?xml version="1.0" encoding="utf-8"?>
<!-- Generator: Adobe Illustrator 22.1.0, SVG Export Plug-In . SVG Version: 6.00 Build 0)  -->
<svg version="1.1" id="Layer_1" xmlns="http://www.w3.org/2000/svg" xmlns:xlink="http://www.w3.org/1999/xlink" x="0px" y="0px"
	 viewBox="0 0 435 67.5" style="enable-background:new 0 0 435 67.5;" xml:space="preserve">
<style type="text/css">
	.st0{fill:#FFFFFF;}
	.st1{fill:none;}
	.st2{font-family:'Roboto-Bold';}
	.st3{font-size:29px;}
	.st4{font-family:'Roboto-Regular';}
	.st5{font-size:12px;}
	.st6{fill:#017B14;}
</style>
<rect x="0.1" y="0.1" class="st0" width="435" height="67.5"/>
<rect x="124.3" y="17" class="st1" width="287.4" height="47.3"/>
<text transform="matrix(1 0 0 1 124.3335 39.1148)"><tspan x="0" y="0" class="st2 st3">By Miners, For Miners  </tspan><tspan x="74.5" y="19" class="st4 st5">getPiMP.org | Miner.Farm</tspan></text>
<g id="logo_2_">
	<g>
		<path class="st6" d="M88.3,35.2c0.5-8.2-3.1-16.4-9.8-21.7V20c3,3.5,4.8,7.9,5.1,12.4l-6.9,4c0.3-1.4,0.3-2.7,0.2-4.1l0-20.1
			c-0.4-0.3-0.8-0.5-1.2-0.8c-7.1-4.1-15.3-4.4-22.3-1.6l5.7,3.3c4.3-0.8,9-0.3,13.2,1.9l0,8c-0.7-0.6-1.4-1.2-2.3-1.6
			c-0.2-0.1-18.5-10.7-18.5-10.7c-4.3,2.2-8.1,5.6-10.7,10.1c-1.7,2.9-2.7,6.1-3.2,9.3l5.7-3.3c0.4-1.2,1-2.4,1.6-3.6
			c1.7-2.9,4-5.3,6.6-7l7,4c-0.9,0.3-1.8,0.7-2.6,1.2l0,0L37.3,32.2c-0.5,8.2,3,16.4,9.8,21.6v-6.6c-3-3.5-4.7-7.9-5-12.4l7-4
			c-0.2,0.9-0.3,1.9-0.3,2.8h0l0,21.3c0.4,0.3,0.9,0.5,1.3,0.8c7.1,4.1,15.3,4.4,22.4,1.5l-5.6-3.3c-4.4,0.9-9.1,0.3-13.3-1.8l0-8
			c0.7,0.6,1.5,1.2,2.3,1.7C56,46,74.3,56.5,74.3,56.5c4.3-2.2,8-5.6,10.6-10.1c1.7-2.9,2.7-6.1,3.2-9.2l-5.7,3.3
			c-0.4,1.2-1,2.4-1.6,3.6c-1.7,2.9-3.9,5.3-6.6,7l-6.9-4c1.3-0.4,2.6-1.1,3.8-1.9L88.3,35.2z M68.4,41.2l-1,0.6l0,0.1
			c-2.6,1.5-5.9,1.7-8.8,0.3l-0.5-0.3l0,0c-4.5-2.6-6-8.3-3.4-12.8c2.5-4.3,7.9-5.9,12.3-3.7l0.5,0.3l0,0c0,0,0,0,0,0
			c2.7,1.5,4.3,4.2,4.6,7.1v1h0.1c0,1.6-0.4,3.2-1.3,4.7C70.3,39.5,69.4,40.5,68.4,41.2z"/>
	</g>
</g>
</svg>
